<svg xmlns="http://www.w3.org/2000/svg" xmlns:xlink="http://www.w3.org/1999/xlink" contentStyleType="text/css" height="564px" preserveAspectRatio="none" style="width:588px;height:564px;background:#FFFFFF;" version="1.1" viewBox="0 0 588 564" width="588px" zoomAndPan="magnify"><defs/><g><!--class geonamescache--><g id="elem_geonamescache"><rect codeLine="7" fill="#FFFFE0" height="105.1563" id="geonamescache" rx="2.5" ry="2.5" style="stroke:#000000;stroke-width:0.5;" width="161" x="7" y="23.29"/><ellipse cx="22" cy="43.4228" fill="#ADD1B2" rx="11" ry="11" style="stroke:#181818;stroke-width:1.0;"/><path d="M24.9688,49.0634 Q24.3906,49.3603 23.75,49.5009 Q23.1094,49.6572 22.4063,49.6572 Q19.9063,49.6572 18.5781,48.0166 Q17.2656,46.3603 17.2656,43.2353 Q17.2656,40.1103 18.5781,38.4541 Q19.9063,36.7978 22.4063,36.7978 Q23.1094,36.7978 23.75,36.9541 Q24.4063,37.1103 24.9688,37.4072 L24.9688,40.1259 Q24.3438,39.5478 23.75,39.2822 Q23.1563,39.0009 22.5313,39.0009 Q21.1875,39.0009 20.5,40.0791 Q19.8125,41.1416 19.8125,43.2353 Q19.8125,45.3291 20.5,46.4072 Q21.1875,47.4697 22.5313,47.4697 Q23.1563,47.4697 23.75,47.2041 Q24.3438,46.9228 24.9688,46.3447 L24.9688,49.0634 Z " fill="#000000"/><text fill="#000000" font-family="sans-serif" font-size="12" font-style="italic" lengthAdjust="spacing" textLength="46" x="77.5" y="39.4287">&#171;class&#187;</text><text fill="#000000" font-family="sans-serif" font-size="14" font-weight="bold" lengthAdjust="spacing" textLength="129" x="36" y="55.2539">geonamescache</text><line style="stroke:#000000;stroke-width:0.5;" x1="8" x2="167" y1="63.5556" y2="63.5556"/><text fill="#000000" font-family="sans-serif" font-size="14" lengthAdjust="spacing" textLength="96" x="13" y="80.5507">int ghostnetid</text><text fill="#000000" font-family="sans-serif" font-size="14" lengthAdjust="spacing" textLength="93" x="13" y="96.8476">varchar name</text><text fill="#000000" font-family="sans-serif" font-size="14" lengthAdjust="spacing" textLength="94" x="13" y="113.1445">int timestamp</text><line style="stroke:#000000;stroke-width:0.5;" x1="8" x2="167" y1="120.4463" y2="120.4463"/></g><!--class ghostnets--><g id="elem_ghostnets"><rect codeLine="12" fill="#FFFFE0" height="121.4531" id="ghostnets" rx="2.5" ry="2.5" style="stroke:#000000;stroke-width:0.5;" width="131" x="44" y="238.04"/><ellipse cx="67.55" cy="258.1728" fill="#ADD1B2" rx="11" ry="11" style="stroke:#181818;stroke-width:1.0;"/><path d="M70.5188,263.8134 Q69.9406,264.1103 69.3,264.2509 Q68.6594,264.4072 67.9563,264.4072 Q65.4563,264.4072 64.1281,262.7666 Q62.8156,261.1103 62.8156,257.9853 Q62.8156,254.8603 64.1281,253.2041 Q65.4563,251.5478 67.9563,251.5478 Q68.6594,251.5478 69.3,251.7041 Q69.9563,251.8603 70.5188,252.1572 L70.5188,254.8759 Q69.8938,254.2978 69.3,254.0322 Q68.7063,253.7509 68.0813,253.7509 Q66.7375,253.7509 66.05,254.8291 Q65.3625,255.8916 65.3625,257.9853 Q65.3625,260.0791 66.05,261.1572 Q66.7375,262.2197 68.0813,262.2197 Q68.7063,262.2197 69.3,261.9541 Q69.8938,261.6728 70.5188,261.0947 L70.5188,263.8134 Z " fill="#000000"/><text fill="#000000" font-family="sans-serif" font-size="12" font-style="italic" lengthAdjust="spacing" textLength="46" x="100.45" y="254.1787">&#171;class&#187;</text><text fill="#000000" font-family="sans-serif" font-size="14" font-weight="bold" lengthAdjust="spacing" textLength="80" x="83.45" y="270.0039">ghostnets</text><line style="stroke:#000000;stroke-width:0.5;" x1="45" x2="174" y1="278.3056" y2="278.3056"/><text fill="#000000" font-family="sans-serif" font-size="14" lengthAdjust="spacing" textLength="33" x="50" y="295.3007">int id</text><text fill="#000000" font-family="sans-serif" font-size="14" lengthAdjust="spacing" textLength="105" x="50" y="311.5976">varchar latitude</text><text fill="#000000" font-family="sans-serif" font-size="14" lengthAdjust="spacing" textLength="119" x="50" y="327.8945">varchar longitude</text><text fill="#000000" font-family="sans-serif" font-size="14" lengthAdjust="spacing" textLength="49" x="50" y="344.1914">int size</text><line style="stroke:#000000;stroke-width:0.5;" x1="45" x2="174" y1="351.4931" y2="351.4931"/></g><!--class ghostnetsizes--><g id="elem_ghostnetsizes"><rect codeLine="18" fill="#FFFFE0" height="88.8594" id="ghostnetsizes" rx="2.5" ry="2.5" style="stroke:#000000;stroke-width:0.5;" width="144" x="37.5" y="460.94"/><ellipse cx="52.5" cy="481.0728" fill="#ADD1B2" rx="11" ry="11" style="stroke:#181818;stroke-width:1.0;"/><path d="M55.4688,486.7134 Q54.8906,487.0103 54.25,487.1509 Q53.6094,487.3072 52.9063,487.3072 Q50.4063,487.3072 49.0781,485.6666 Q47.7656,484.0103 47.7656,480.8853 Q47.7656,477.7603 49.0781,476.1041 Q50.4063,474.4478 52.9063,474.4478 Q53.6094,474.4478 54.25,474.6041 Q54.9063,474.7603 55.4688,475.0572 L55.4688,477.7759 Q54.8438,477.1978 54.25,476.9322 Q53.6563,476.6509 53.0313,476.6509 Q51.6875,476.6509 51,477.7291 Q50.3125,478.7916 50.3125,480.8853 Q50.3125,482.9791 51,484.0572 Q51.6875,485.1197 53.0313,485.1197 Q53.6563,485.1197 54.25,484.8541 Q54.8438,484.5728 55.4688,483.9947 L55.4688,486.7134 Z " fill="#000000"/><text fill="#000000" font-family="sans-serif" font-size="12" font-style="italic" lengthAdjust="spacing" textLength="46" x="99.5" y="477.0787">&#171;class&#187;</text><text fill="#000000" font-family="sans-serif" font-size="14" font-weight="bold" lengthAdjust="spacing" textLength="112" x="66.5" y="492.9039">ghostnetsizes</text><line style="stroke:#000000;stroke-width:0.5;" x1="38.5" x2="180.5" y1="501.2056" y2="501.2056"/><text fill="#000000" font-family="sans-serif" font-size="14" lengthAdjust="spacing" textLength="33" x="43.5" y="518.2007">int id</text><text fill="#000000" font-family="sans-serif" font-size="14" lengthAdjust="spacing" textLength="86" x="43.5" y="534.4976">varchar label</text><line style="stroke:#000000;stroke-width:0.5;" x1="38.5" x2="180.5" y1="541.7994" y2="541.7994"/></g><!--class reports--><g id="elem_reports"><rect codeLine="22" fill="#FFFFE0" height="137.75" id="reports" rx="2.5" ry="2.5" style="stroke:#000000;stroke-width:0.5;" width="106" x="243.5" y="7"/><ellipse cx="265.25" cy="27.1328" fill="#ADD1B2" rx="11" ry="11" style="stroke:#181818;stroke-width:1.0;"/><path d="M268.2188,32.7734 Q267.6406,33.0703 267,33.2109 Q266.3594,33.3672 265.6563,33.3672 Q263.1563,33.3672 261.8281,31.7266 Q260.5156,30.0703 260.5156,26.9453 Q260.5156,23.8203 261.8281,22.1641 Q263.1563,20.5078 265.6563,20.5078 Q266.3594,20.5078 267,20.6641 Q267.6563,20.8203 268.2188,21.1172 L268.2188,23.8359 Q267.5938,23.2578 267,22.9922 Q266.4063,22.7109 265.7813,22.7109 Q264.4375,22.7109 263.75,23.7891 Q263.0625,24.8516 263.0625,26.9453 Q263.0625,29.0391 263.75,30.1172 Q264.4375,31.1797 265.7813,31.1797 Q266.4063,31.1797 267,30.9141 Q267.5938,30.6328 268.2188,30.0547 L268.2188,32.7734 Z " fill="#000000"/><text fill="#000000" font-family="sans-serif" font-size="12" font-style="italic" lengthAdjust="spacing" textLength="46" x="287.25" y="23.1387">&#171;class&#187;</text><text fill="#000000" font-family="sans-serif" font-size="14" font-weight="bold" lengthAdjust="spacing" textLength="59" x="280.75" y="38.9639">reports</text><line style="stroke:#000000;stroke-width:0.5;" x1="244.5" x2="348.5" y1="47.2656" y2="47.2656"/><text fill="#000000" font-family="sans-serif" font-size="14" lengthAdjust="spacing" textLength="33" x="249.5" y="64.2607">int id</text><text fill="#000000" font-family="sans-serif" font-size="14" lengthAdjust="spacing" textLength="52" x="249.5" y="80.5576">int user</text><text fill="#000000" font-family="sans-serif" font-size="14" lengthAdjust="spacing" textLength="84" x="249.5" y="96.8545">int ghostnet</text><text fill="#000000" font-family="sans-serif" font-size="14" lengthAdjust="spacing" textLength="64" x="249.5" y="113.1514">int status</text><text fill="#000000" font-family="sans-serif" font-size="14" lengthAdjust="spacing" textLength="94" x="249.5" y="129.4482">int timestamp</text><line style="stroke:#000000;stroke-width:0.5;" x1="244.5" x2="348.5" y1="136.75" y2="136.75"/></g><!--class statuscodes--><g id="elem_statuscodes"><rect codeLine="29" fill="#FFFFE0" height="88.8594" id="statuscodes" rx="2.5" ry="2.5" style="stroke:#000000;stroke-width:0.5;" width="129" x="232" y="254.34"/><ellipse cx="247" cy="274.4728" fill="#ADD1B2" rx="11" ry="11" style="stroke:#181818;stroke-width:1.0;"/><path d="M249.9688,280.1134 Q249.3906,280.4103 248.75,280.5509 Q248.1094,280.7072 247.4063,280.7072 Q244.9063,280.7072 243.5781,279.0666 Q242.2656,277.4103 242.2656,274.2853 Q242.2656,271.1603 243.5781,269.5041 Q244.9063,267.8478 247.4063,267.8478 Q248.1094,267.8478 248.75,268.0041 Q249.4063,268.1603 249.9688,268.4572 L249.9688,271.1759 Q249.3438,270.5978 248.75,270.3322 Q248.1563,270.0509 247.5313,270.0509 Q246.1875,270.0509 245.5,271.1291 Q244.8125,272.1916 244.8125,274.2853 Q244.8125,276.3791 245.5,277.4572 Q246.1875,278.5197 247.5313,278.5197 Q248.1563,278.5197 248.75,278.2541 Q249.3438,277.9728 249.9688,277.3947 L249.9688,280.1134 Z " fill="#000000"/><text fill="#000000" font-family="sans-serif" font-size="12" font-style="italic" lengthAdjust="spacing" textLength="46" x="286.5" y="270.4787">&#171;class&#187;</text><text fill="#000000" font-family="sans-serif" font-size="14" font-weight="bold" lengthAdjust="spacing" textLength="97" x="261" y="286.3039">statuscodes</text><line style="stroke:#000000;stroke-width:0.5;" x1="233" x2="360" y1="294.6056" y2="294.6056"/><text fill="#000000" font-family="sans-serif" font-size="14" lengthAdjust="spacing" textLength="33" x="238" y="311.6007">int id</text><text fill="#000000" font-family="sans-serif" font-size="14" lengthAdjust="spacing" textLength="86" x="238" y="327.8976">varchar label</text><line style="stroke:#000000;stroke-width:0.5;" x1="233" x2="360" y1="335.1994" y2="335.1994"/></g><!--class userdetails--><g id="elem_userdetails"><rect codeLine="33" fill="#FFFFE0" height="121.4531" id="userdetails" rx="2.5" ry="2.5" style="stroke:#000000;stroke-width:0.5;" width="165" x="406" y="15.15"/><ellipse cx="441.25" cy="35.2828" fill="#ADD1B2" rx="11" ry="11" style="stroke:#181818;stroke-width:1.0;"/><path d="M444.2188,40.9234 Q443.6406,41.2203 443,41.3609 Q442.3594,41.5172 441.6563,41.5172 Q439.1563,41.5172 437.8281,39.8766 Q436.5156,38.2203 436.5156,35.0953 Q436.5156,31.9703 437.8281,30.3141 Q439.1563,28.6578 441.6563,28.6578 Q442.3594,28.6578 443,28.8141 Q443.6563,28.9703 444.2188,29.2672 L444.2188,31.9859 Q443.5938,31.4078 443,31.1422 Q442.4063,30.8609 441.7813,30.8609 Q440.4375,30.8609 439.75,31.9391 Q439.0625,33.0016 439.0625,35.0953 Q439.0625,37.1891 439.75,38.2672 Q440.4375,39.3297 441.7813,39.3297 Q442.4063,39.3297 443,39.0641 Q443.5938,38.7828 444.2188,38.2047 L444.2188,40.9234 Z " fill="#000000"/><text fill="#000000" font-family="sans-serif" font-size="12" font-style="italic" lengthAdjust="spacing" textLength="46" x="480.75" y="31.2887">&#171;class&#187;</text><text fill="#000000" font-family="sans-serif" font-size="14" font-weight="bold" lengthAdjust="spacing" textLength="88" x="459.75" y="47.1139">userdetails</text><line style="stroke:#000000;stroke-width:0.5;" x1="407" x2="570" y1="55.4156" y2="55.4156"/><text fill="#000000" font-family="sans-serif" font-size="14" lengthAdjust="spacing" textLength="64" x="412" y="72.4107">int userid</text><text fill="#000000" font-family="sans-serif" font-size="14" lengthAdjust="spacing" textLength="118" x="412" y="88.7076">varchar firstname</text><text fill="#000000" font-family="sans-serif" font-size="14" lengthAdjust="spacing" textLength="117" x="412" y="105.0045">varchar lastname</text><text fill="#000000" font-family="sans-serif" font-size="14" lengthAdjust="spacing" textLength="153" x="412" y="121.3014">varchar phonenumber</text><line style="stroke:#000000;stroke-width:0.5;" x1="407" x2="570" y1="128.6031" y2="128.6031"/></g><!--class userroles--><g id="elem_userroles"><rect codeLine="39" fill="#FFFFE0" height="105.1563" id="userroles" rx="2.5" ry="2.5" style="stroke:#000000;stroke-width:0.5;" width="108" x="434.5" y="452.79"/><ellipse cx="449.5" cy="472.9228" fill="#ADD1B2" rx="11" ry="11" style="stroke:#181818;stroke-width:1.0;"/><path d="M452.4688,478.5634 Q451.8906,478.8603 451.25,479.0009 Q450.6094,479.1572 449.9063,479.1572 Q447.4063,479.1572 446.0781,477.5166 Q444.7656,475.8603 444.7656,472.7353 Q444.7656,469.6103 446.0781,467.9541 Q447.4063,466.2978 449.9063,466.2978 Q450.6094,466.2978 451.25,466.4541 Q451.9063,466.6103 452.4688,466.9072 L452.4688,469.6259 Q451.8438,469.0478 451.25,468.7822 Q450.6563,468.5009 450.0313,468.5009 Q448.6875,468.5009 448,469.5791 Q447.3125,470.6416 447.3125,472.7353 Q447.3125,474.8291 448,475.9072 Q448.6875,476.9697 450.0313,476.9697 Q450.6563,476.9697 451.25,476.7041 Q451.8438,476.4228 452.4688,475.8447 L452.4688,478.5634 Z " fill="#000000"/><text fill="#000000" font-family="sans-serif" font-size="12" font-style="italic" lengthAdjust="spacing" textLength="46" x="478.5" y="468.9287">&#171;class&#187;</text><text fill="#000000" font-family="sans-serif" font-size="14" font-weight="bold" lengthAdjust="spacing" textLength="76" x="463.5" y="484.7539">userroles</text><line style="stroke:#000000;stroke-width:0.5;" x1="435.5" x2="541.5" y1="493.0556" y2="493.0556"/><text fill="#000000" font-family="sans-serif" font-size="14" lengthAdjust="spacing" textLength="33" x="440.5" y="510.0507">int id</text><text fill="#000000" font-family="sans-serif" font-size="14" lengthAdjust="spacing" textLength="47" x="440.5" y="526.3476">int role</text><text fill="#000000" font-family="sans-serif" font-size="14" lengthAdjust="spacing" textLength="86" x="440.5" y="542.6445">varchar label</text><line style="stroke:#000000;stroke-width:0.5;" x1="435.5" x2="541.5" y1="549.9463" y2="549.9463"/></g><!--class users--><g id="elem_users"><rect codeLine="44" fill="#FFFFE0" height="154.0469" id="users" rx="2.5" ry="2.5" style="stroke:#000000;stroke-width:0.5;" width="185" x="396" y="221.75"/><ellipse cx="461.75" cy="241.8828" fill="#ADD1B2" rx="11" ry="11" style="stroke:#181818;stroke-width:1.0;"/><path d="M464.7188,247.5234 Q464.1406,247.8203 463.5,247.9609 Q462.8594,248.1172 462.1563,248.1172 Q459.6563,248.1172 458.3281,246.4766 Q457.0156,244.8203 457.0156,241.6953 Q457.0156,238.5703 458.3281,236.9141 Q459.6563,235.2578 462.1563,235.2578 Q462.8594,235.2578 463.5,235.4141 Q464.1563,235.5703 464.7188,235.8672 L464.7188,238.5859 Q464.0938,238.0078 463.5,237.7422 Q462.9063,237.4609 462.2813,237.4609 Q460.9375,237.4609 460.25,238.5391 Q459.5625,239.6016 459.5625,241.6953 Q459.5625,243.7891 460.25,244.8672 Q460.9375,245.9297 462.2813,245.9297 Q462.9063,245.9297 463.5,245.6641 Q464.0938,245.3828 464.7188,244.8047 L464.7188,247.5234 Z " fill="#000000"/><text fill="#000000" font-family="sans-serif" font-size="12" font-style="italic" lengthAdjust="spacing" textLength="46" x="481.75" y="237.8887">&#171;class&#187;</text><text fill="#000000" font-family="sans-serif" font-size="14" font-weight="bold" lengthAdjust="spacing" textLength="45" x="482.25" y="253.7139">users</text><line style="stroke:#000000;stroke-width:0.5;" x1="397" x2="580" y1="262.0156" y2="262.0156"/><text fill="#000000" font-family="sans-serif" font-size="14" lengthAdjust="spacing" textLength="33" x="402" y="279.0107">int id</text><text fill="#000000" font-family="sans-serif" font-size="14" lengthAdjust="spacing" textLength="47" x="402" y="295.3076">int role</text><text fill="#000000" font-family="sans-serif" font-size="14" lengthAdjust="spacing" textLength="124" x="402" y="311.6045">varchar username</text><text fill="#000000" font-family="sans-serif" font-size="14" lengthAdjust="spacing" textLength="120" x="402" y="327.9014">varchar comment</text><text fill="#000000" font-family="sans-serif" font-size="14" lengthAdjust="spacing" textLength="173" x="402" y="344.1982">varchar hashedpassword</text><text fill="#000000" font-family="sans-serif" font-size="14" lengthAdjust="spacing" textLength="78" x="402" y="360.4951">varchar salt</text><line style="stroke:#000000;stroke-width:0.5;" x1="397" x2="580" y1="367.7969" y2="367.7969"/></g><!--link geonamescache to ghostnets--><g id="link_geonamescache_ghostnets"><path codeLine="53" d="M83.04,128.76 C82.15,148.53 82.11,171.24 84.5,191.75 C86.25,206.77 87.9894,216.914 91.4294,231.804 " fill="none" id="geonamescache-to-ghostnets" style="stroke:#181818;stroke-width:1.0;"/><polygon fill="#181818" points="92.78,237.65,94.6515,227.9806,91.6545,232.7783,86.8568,229.7814,92.78,237.65" style="stroke:#181818;stroke-width:1.0;"/><text fill="#000000" font-family="sans-serif" font-size="13" lengthAdjust="spacing" textLength="68" x="85.5" y="187.8169">ghostnetid</text><text fill="#000000" font-family="sans-serif" font-size="13" lengthAdjust="spacing" textLength="23" x="57.9951" y="148.5731">0..*</text><text fill="#000000" font-family="sans-serif" font-size="13" lengthAdjust="spacing" textLength="8" x="82.3843" y="226.7908">1</text></g><!--link ghostnets to ghostnetsizes--><g id="link_ghostnets_ghostnetsizes"><path codeLine="54" d="M109.5,359.78 C109.5,392.08 109.5,425.22 109.5,454.63 " fill="none" id="ghostnets-to-ghostnetsizes" style="stroke:#181818;stroke-width:1.0;"/><polygon fill="#181818" points="109.5,460.63,113.5,451.63,109.5,455.63,105.5,451.63,109.5,460.63" style="stroke:#181818;stroke-width:1.0;"/><text fill="#000000" font-family="sans-serif" font-size="13" lengthAdjust="spacing" textLength="25" x="110.5" y="418.8569">size</text><text fill="#000000" font-family="sans-serif" font-size="13" lengthAdjust="spacing" textLength="23" x="85.2422" y="379.3478">0..*</text><text fill="#000000" font-family="sans-serif" font-size="13" lengthAdjust="spacing" textLength="8" x="100.9125" y="450.0339">1</text></g><!--link reports to users--><g id="link_reports_users"><path codeLine="55" d="M349.98,138.4 C372.4,164.19 394.7545,189.911 418.3645,217.081 " fill="none" id="reports-to-users" style="stroke:#181818;stroke-width:1.0;"/><polygon fill="#181818" points="422.3,221.61,419.416,212.1929,419.0204,217.8359,413.3774,217.4403,422.3,221.61" style="stroke:#181818;stroke-width:1.0;"/><text fill="#000000" font-family="sans-serif" font-size="13" lengthAdjust="spacing" textLength="28" x="393.5" y="187.8169">user</text><text fill="#000000" font-family="sans-serif" font-size="13" lengthAdjust="spacing" textLength="23" x="357.4933" y="141.8368">0..*</text><text fill="#000000" font-family="sans-serif" font-size="13" lengthAdjust="spacing" textLength="8" x="407.6091" y="210.6137">1</text></g><!--link reports to ghostnets--><g id="link_reports_ghostnets"><path codeLine="56" d="M243.16,139.88 C217.15,170.61 189.8871,202.8109 164.2071,233.1409 " fill="none" id="reports-to-ghostnets" style="stroke:#181818;stroke-width:1.0;"/><polygon fill="#181818" points="160.33,237.72,169.1984,233.436,163.5609,233.9041,163.0929,228.2666,160.33,237.72" style="stroke:#181818;stroke-width:1.0;"/><text fill="#000000" font-family="sans-serif" font-size="13" lengthAdjust="spacing" textLength="57" x="209.5" y="187.8169">ghostnet</text><text fill="#000000" font-family="sans-serif" font-size="13" lengthAdjust="spacing" textLength="23" x="212.6629" y="143.488">0..*</text><text fill="#000000" font-family="sans-serif" font-size="13" lengthAdjust="spacing" textLength="8" x="157.7447" y="226.8689">1</text></g><!--link reports to statuscodes--><g id="link_reports_statuscodes"><path codeLine="57" d="M296.5,144.95 C296.5,180.45 296.5,216.82 296.5,247.94 " fill="none" id="reports-to-statuscodes" style="stroke:#181818;stroke-width:1.0;"/><polygon fill="#181818" points="296.5,253.94,300.5,244.94,296.5,248.94,292.5,244.94,296.5,253.94" style="stroke:#181818;stroke-width:1.0;"/><text fill="#000000" font-family="sans-serif" font-size="13" lengthAdjust="spacing" textLength="40" x="297.5" y="187.8169">status</text><text fill="#000000" font-family="sans-serif" font-size="13" lengthAdjust="spacing" textLength="23" x="272.3141" y="164.9205">0..*</text><text fill="#000000" font-family="sans-serif" font-size="13" lengthAdjust="spacing" textLength="8" x="287.9125" y="243.3307">1</text></g><!--link userdetails to users--><g id="link_userdetails_users"><path codeLine="58" d="M488.5,136.94 C488.5,163 488.5,187.83 488.5,215.49 " fill="none" id="userdetails-to-users" style="stroke:#181818;stroke-width:1.0;"/><polygon fill="#181818" points="488.5,221.49,492.5,212.49,488.5,216.49,484.5,212.49,488.5,221.49" style="stroke:#181818;stroke-width:1.0;"/><text fill="#000000" font-family="sans-serif" font-size="13" lengthAdjust="spacing" textLength="39" x="489.5" y="187.8169">userid</text><text fill="#000000" font-family="sans-serif" font-size="13" lengthAdjust="spacing" textLength="23" x="464.2422" y="156.5133">0..*</text><text fill="#000000" font-family="sans-serif" font-size="13" lengthAdjust="spacing" textLength="8" x="480.1313" y="210.747">1</text></g><!--link users to userroles--><g id="link_users_userroles"><path codeLine="59" d="M488.5,376.25 C488.5,401.67 488.5,423.37 488.5,446.49 " fill="none" id="users-to-userroles" style="stroke:#181818;stroke-width:1.0;"/><polygon fill="#181818" points="488.5,452.49,492.5,443.49,488.5,447.49,484.5,443.49,488.5,452.49" style="stroke:#181818;stroke-width:1.0;"/><text fill="#000000" font-family="sans-serif" font-size="13" lengthAdjust="spacing" textLength="24" x="489.5" y="418.8569">role</text><text fill="#000000" font-family="sans-serif" font-size="13" lengthAdjust="spacing" textLength="23" x="464.4758" y="395.891">0..*</text><text fill="#000000" font-family="sans-serif" font-size="13" lengthAdjust="spacing" textLength="8" x="479.9875" y="441.8295">1</text></g><!--SRC=[dLEnReCm4Dtv2fUnKg9sHL66LEgKhLqwNl05h1WViez6RTL_husJ024qKPZW_EwzT-V7WyIjCYZUOQDHv1gSIznEcHeiLF5R_2J2Fol8TuMbniWNqcGNYqFFSYdMgYZv0xMcVOIIbMX7i9Ns52tWbGo_yPV6mJ5fcVmcKRD0Cb2Xoo4lKVHXqOqoB8gI71ja9TlI9zYy12j2tmd3ofCmL7N7VEXo4wndR1fOSIDnM2HJTDNGvTGtZYLyyMQP3UeJWSMQx3M7uRLnQ4Vxw4mnSEF-sKK4v2JlindK9J8eFTKU46SKMsMzo-CTTSGNYdL91arJRVoGVKrB6czOJe1TSNyFI-WRMSsfgj3me5Q2Ar7MNcllVuZ1aGFDtaWoZ7dwD9y_fc8sMuhqEUrYbFMZtkLt2XvIbyL47eDq1cr7ps9w9Y0NnAUWlHHbnyprep4jxiU9jt01qbvorgx_3m00]--></g></svg>