<svg xmlns="http://www.w3.org/2000/svg" xmlns:xlink="http://www.w3.org/1999/xlink" contentStyleType="text/css" height="312px" preserveAspectRatio="none" style="width:866px;height:312px;background:#FFFFFF;" version="1.1" viewBox="0 0 866 312" width="866px" zoomAndPan="magnify"><defs/><g><!--class LoginBean--><g id="elem_LoginBean"><rect codeLine="1" fill="#F1F1F1" height="48" id="LoginBean" rx="2.5" ry="2.5" style="stroke:#181818;stroke-width:0.5;" width="105" x="7" y="7"/><ellipse cx="22" cy="23" fill="#ADD1B2" rx="11" ry="11" style="stroke:#181818;stroke-width:1.0;"/><path d="M24.9688,28.6406 Q24.3906,28.9375 23.75,29.0781 Q23.1094,29.2344 22.4063,29.2344 Q19.9063,29.2344 18.5781,27.5938 Q17.2656,25.9375 17.2656,22.8125 Q17.2656,19.6875 18.5781,18.0313 Q19.9063,16.375 22.4063,16.375 Q23.1094,16.375 23.75,16.5313 Q24.4063,16.6875 24.9688,16.9844 L24.9688,19.7031 Q24.3438,19.125 23.75,18.8594 Q23.1563,18.5781 22.5313,18.5781 Q21.1875,18.5781 20.5,19.6563 Q19.8125,20.7188 19.8125,22.8125 Q19.8125,24.9063 20.5,25.9844 Q21.1875,27.0469 22.5313,27.0469 Q23.1563,27.0469 23.75,26.7813 Q24.3438,26.5 24.9688,25.9219 L24.9688,28.6406 Z " fill="#000000"/><text fill="#000000" font-family="sans-serif" font-size="14" lengthAdjust="spacing" textLength="73" x="36" y="27.8467">LoginBean</text><line style="stroke:#181818;stroke-width:0.5;" x1="8" x2="111" y1="39" y2="39"/><line style="stroke:#181818;stroke-width:0.5;" x1="8" x2="111" y1="47" y2="47"/></g><!--class GhostNetBean--><g id="elem_GhostNetBean"><rect codeLine="4" fill="#F1F1F1" height="48" id="GhostNetBean" rx="2.5" ry="2.5" style="stroke:#181818;stroke-width:0.5;" width="134" x="146.5" y="7"/><ellipse cx="161.5" cy="23" fill="#ADD1B2" rx="11" ry="11" style="stroke:#181818;stroke-width:1.0;"/><path d="M164.4688,28.6406 Q163.8906,28.9375 163.25,29.0781 Q162.6094,29.2344 161.9063,29.2344 Q159.4063,29.2344 158.0781,27.5938 Q156.7656,25.9375 156.7656,22.8125 Q156.7656,19.6875 158.0781,18.0313 Q159.4063,16.375 161.9063,16.375 Q162.6094,16.375 163.25,16.5313 Q163.9063,16.6875 164.4688,16.9844 L164.4688,19.7031 Q163.8438,19.125 163.25,18.8594 Q162.6563,18.5781 162.0313,18.5781 Q160.6875,18.5781 160,19.6563 Q159.3125,20.7188 159.3125,22.8125 Q159.3125,24.9063 160,25.9844 Q160.6875,27.0469 162.0313,27.0469 Q162.6563,27.0469 163.25,26.7813 Q163.8438,26.5 164.4688,25.9219 L164.4688,28.6406 Z " fill="#000000"/><text fill="#000000" font-family="sans-serif" font-size="14" lengthAdjust="spacing" textLength="102" x="175.5" y="27.8467">GhostNetBean</text><line style="stroke:#181818;stroke-width:0.5;" x1="147.5" x2="279.5" y1="39" y2="39"/><line style="stroke:#181818;stroke-width:0.5;" x1="147.5" x2="279.5" y1="47" y2="47"/></g><!--class ReportBean--><g id="elem_ReportBean"><rect codeLine="7" fill="#F1F1F1" height="48" id="ReportBean" rx="2.5" ry="2.5" style="stroke:#181818;stroke-width:0.5;" width="115" x="315" y="7"/><ellipse cx="330" cy="23" fill="#ADD1B2" rx="11" ry="11" style="stroke:#181818;stroke-width:1.0;"/><path d="M332.9688,28.6406 Q332.3906,28.9375 331.75,29.0781 Q331.1094,29.2344 330.4063,29.2344 Q327.9063,29.2344 326.5781,27.5938 Q325.2656,25.9375 325.2656,22.8125 Q325.2656,19.6875 326.5781,18.0313 Q327.9063,16.375 330.4063,16.375 Q331.1094,16.375 331.75,16.5313 Q332.4063,16.6875 332.9688,16.9844 L332.9688,19.7031 Q332.3438,19.125 331.75,18.8594 Q331.1563,18.5781 330.5313,18.5781 Q329.1875,18.5781 328.5,19.6563 Q327.8125,20.7188 327.8125,22.8125 Q327.8125,24.9063 328.5,25.9844 Q329.1875,27.0469 330.5313,27.0469 Q331.1563,27.0469 331.75,26.7813 Q332.3438,26.5 332.9688,25.9219 L332.9688,28.6406 Z " fill="#000000"/><text fill="#000000" font-family="sans-serif" font-size="14" lengthAdjust="spacing" textLength="83" x="344" y="27.8467">ReportBean</text><line style="stroke:#181818;stroke-width:0.5;" x1="316" x2="429" y1="39" y2="39"/><line style="stroke:#181818;stroke-width:0.5;" x1="316" x2="429" y1="47" y2="47"/></g><!--class StatisticBean--><g id="elem_StatisticBean"><rect codeLine="10" fill="#F1F1F1" height="48" id="StatisticBean" rx="2.5" ry="2.5" style="stroke:#181818;stroke-width:0.5;" width="122" x="464.5" y="7"/><ellipse cx="479.5" cy="23" fill="#ADD1B2" rx="11" ry="11" style="stroke:#181818;stroke-width:1.0;"/><path d="M482.4688,28.6406 Q481.8906,28.9375 481.25,29.0781 Q480.6094,29.2344 479.9063,29.2344 Q477.4063,29.2344 476.0781,27.5938 Q474.7656,25.9375 474.7656,22.8125 Q474.7656,19.6875 476.0781,18.0313 Q477.4063,16.375 479.9063,16.375 Q480.6094,16.375 481.25,16.5313 Q481.9063,16.6875 482.4688,16.9844 L482.4688,19.7031 Q481.8438,19.125 481.25,18.8594 Q480.6563,18.5781 480.0313,18.5781 Q478.6875,18.5781 478,19.6563 Q477.3125,20.7188 477.3125,22.8125 Q477.3125,24.9063 478,25.9844 Q478.6875,27.0469 480.0313,27.0469 Q480.6563,27.0469 481.25,26.7813 Q481.8438,26.5 482.4688,25.9219 L482.4688,28.6406 Z " fill="#000000"/><text fill="#000000" font-family="sans-serif" font-size="14" lengthAdjust="spacing" textLength="90" x="493.5" y="27.8467">StatisticBean</text><line style="stroke:#181818;stroke-width:0.5;" x1="465.5" x2="585.5" y1="39" y2="39"/><line style="stroke:#181818;stroke-width:0.5;" x1="465.5" x2="585.5" y1="47" y2="47"/></g><!--class LabelBean--><g id="elem_LabelBean"><rect codeLine="13" fill="#F1F1F1" height="48" id="LabelBean" rx="2.5" ry="2.5" style="stroke:#181818;stroke-width:0.5;" width="104" x="621.5" y="7"/><ellipse cx="636.5" cy="23" fill="#ADD1B2" rx="11" ry="11" style="stroke:#181818;stroke-width:1.0;"/><path d="M639.4688,28.6406 Q638.8906,28.9375 638.25,29.0781 Q637.6094,29.2344 636.9063,29.2344 Q634.4063,29.2344 633.0781,27.5938 Q631.7656,25.9375 631.7656,22.8125 Q631.7656,19.6875 633.0781,18.0313 Q634.4063,16.375 636.9063,16.375 Q637.6094,16.375 638.25,16.5313 Q638.9063,16.6875 639.4688,16.9844 L639.4688,19.7031 Q638.8438,19.125 638.25,18.8594 Q637.6563,18.5781 637.0313,18.5781 Q635.6875,18.5781 635,19.6563 Q634.3125,20.7188 634.3125,22.8125 Q634.3125,24.9063 635,25.9844 Q635.6875,27.0469 637.0313,27.0469 Q637.6563,27.0469 638.25,26.7813 Q638.8438,26.5 639.4688,25.9219 L639.4688,28.6406 Z " fill="#000000"/><text fill="#000000" font-family="sans-serif" font-size="14" lengthAdjust="spacing" textLength="72" x="650.5" y="27.8467">LabelBean</text><line style="stroke:#181818;stroke-width:0.5;" x1="622.5" x2="724.5" y1="39" y2="39"/><line style="stroke:#181818;stroke-width:0.5;" x1="622.5" x2="724.5" y1="47" y2="47"/></g><!--class TestBean--><g id="elem_TestBean"><rect codeLine="16" fill="#F1F1F1" height="48" id="TestBean" rx="2.5" ry="2.5" style="stroke:#181818;stroke-width:0.5;" width="99" x="760" y="7"/><ellipse cx="775" cy="23" fill="#ADD1B2" rx="11" ry="11" style="stroke:#181818;stroke-width:1.0;"/><path d="M777.9688,28.6406 Q777.3906,28.9375 776.75,29.0781 Q776.1094,29.2344 775.4063,29.2344 Q772.9063,29.2344 771.5781,27.5938 Q770.2656,25.9375 770.2656,22.8125 Q770.2656,19.6875 771.5781,18.0313 Q772.9063,16.375 775.4063,16.375 Q776.1094,16.375 776.75,16.5313 Q777.4063,16.6875 777.9688,16.9844 L777.9688,19.7031 Q777.3438,19.125 776.75,18.8594 Q776.1563,18.5781 775.5313,18.5781 Q774.1875,18.5781 773.5,19.6563 Q772.8125,20.7188 772.8125,22.8125 Q772.8125,24.9063 773.5,25.9844 Q774.1875,27.0469 775.5313,27.0469 Q776.1563,27.0469 776.75,26.7813 Q777.3438,26.5 777.9688,25.9219 L777.9688,28.6406 Z " fill="#000000"/><text fill="#000000" font-family="sans-serif" font-size="14" lengthAdjust="spacing" textLength="67" x="789" y="27.8467">TestBean</text><line style="stroke:#181818;stroke-width:0.5;" x1="761" x2="858" y1="39" y2="39"/><line style="stroke:#181818;stroke-width:0.5;" x1="761" x2="858" y1="47" y2="47"/></g><!--class DataController--><g id="elem_DataController"><rect codeLine="19" fill="#F1F1F1" height="48" id="DataController" rx="2.5" ry="2.5" style="stroke:#181818;stroke-width:0.5;" width="131" x="383" y="132"/><ellipse cx="398" cy="148" fill="#ADD1B2" rx="11" ry="11" style="stroke:#181818;stroke-width:1.0;"/><path d="M400.9688,153.6406 Q400.3906,153.9375 399.75,154.0781 Q399.1094,154.2344 398.4063,154.2344 Q395.9063,154.2344 394.5781,152.5938 Q393.2656,150.9375 393.2656,147.8125 Q393.2656,144.6875 394.5781,143.0313 Q395.9063,141.375 398.4063,141.375 Q399.1094,141.375 399.75,141.5313 Q400.4063,141.6875 400.9688,141.9844 L400.9688,144.7031 Q400.3438,144.125 399.75,143.8594 Q399.1563,143.5781 398.5313,143.5781 Q397.1875,143.5781 396.5,144.6563 Q395.8125,145.7188 395.8125,147.8125 Q395.8125,149.9063 396.5,150.9844 Q397.1875,152.0469 398.5313,152.0469 Q399.1563,152.0469 399.75,151.7813 Q400.3438,151.5 400.9688,150.9219 L400.9688,153.6406 Z " fill="#000000"/><text fill="#000000" font-family="sans-serif" font-size="14" lengthAdjust="spacing" textLength="99" x="412" y="152.8467">DataController</text><line style="stroke:#181818;stroke-width:0.5;" x1="384" x2="513" y1="164" y2="164"/><line style="stroke:#181818;stroke-width:0.5;" x1="384" x2="513" y1="172" y2="172"/></g><!--class DataService--><g id="elem_DataService"><rect codeLine="22" fill="#F1F1F1" height="48" id="DataService" rx="2.5" ry="2.5" style="stroke:#181818;stroke-width:0.5;" width="114" x="298.5" y="257"/><ellipse cx="313.5" cy="273" fill="#ADD1B2" rx="11" ry="11" style="stroke:#181818;stroke-width:1.0;"/><path d="M316.4688,278.6406 Q315.8906,278.9375 315.25,279.0781 Q314.6094,279.2344 313.9063,279.2344 Q311.4063,279.2344 310.0781,277.5938 Q308.7656,275.9375 308.7656,272.8125 Q308.7656,269.6875 310.0781,268.0313 Q311.4063,266.375 313.9063,266.375 Q314.6094,266.375 315.25,266.5313 Q315.9063,266.6875 316.4688,266.9844 L316.4688,269.7031 Q315.8438,269.125 315.25,268.8594 Q314.6563,268.5781 314.0313,268.5781 Q312.6875,268.5781 312,269.6563 Q311.3125,270.7188 311.3125,272.8125 Q311.3125,274.9063 312,275.9844 Q312.6875,277.0469 314.0313,277.0469 Q314.6563,277.0469 315.25,276.7813 Q315.8438,276.5 316.4688,275.9219 L316.4688,278.6406 Z " fill="#000000"/><text fill="#000000" font-family="sans-serif" font-size="14" lengthAdjust="spacing" textLength="82" x="327.5" y="277.8467">DataService</text><line style="stroke:#181818;stroke-width:0.5;" x1="299.5" x2="411.5" y1="289" y2="289"/><line style="stroke:#181818;stroke-width:0.5;" x1="299.5" x2="411.5" y1="297" y2="297"/></g><!--class DataServiceGeoNames--><g id="elem_DataServiceGeoNames"><rect codeLine="25" fill="#F1F1F1" height="48" id="DataServiceGeoNames" rx="2.5" ry="2.5" style="stroke:#181818;stroke-width:0.5;" width="191" x="447" y="257"/><ellipse cx="462" cy="273" fill="#ADD1B2" rx="11" ry="11" style="stroke:#181818;stroke-width:1.0;"/><path d="M464.9688,278.6406 Q464.3906,278.9375 463.75,279.0781 Q463.1094,279.2344 462.4063,279.2344 Q459.9063,279.2344 458.5781,277.5938 Q457.2656,275.9375 457.2656,272.8125 Q457.2656,269.6875 458.5781,268.0313 Q459.9063,266.375 462.4063,266.375 Q463.1094,266.375 463.75,266.5313 Q464.4063,266.6875 464.9688,266.9844 L464.9688,269.7031 Q464.3438,269.125 463.75,268.8594 Q463.1563,268.5781 462.5313,268.5781 Q461.1875,268.5781 460.5,269.6563 Q459.8125,270.7188 459.8125,272.8125 Q459.8125,274.9063 460.5,275.9844 Q461.1875,277.0469 462.5313,277.0469 Q463.1563,277.0469 463.75,276.7813 Q464.3438,276.5 464.9688,275.9219 L464.9688,278.6406 Z " fill="#000000"/><text fill="#000000" font-family="sans-serif" font-size="14" lengthAdjust="spacing" textLength="159" x="476" y="277.8467">DataServiceGeoNames</text><line style="stroke:#181818;stroke-width:0.5;" x1="448" x2="637" y1="289" y2="289"/><line style="stroke:#181818;stroke-width:0.5;" x1="448" x2="637" y1="297" y2="297"/></g><!--link LoginBean to DataController--><g id="link_LoginBean_DataController"><path codeLine="28" d="M112.23,49.39 C118.05,51.29 123.9,53.19 129.5,55 C216.9,83.24 312.4076,113.0083 376.9876,132.9683 " fill="none" id="LoginBean-to-DataController" style="stroke:#181818;stroke-width:1.0;"/><polygon fill="#181818" points="382.72,134.74,375.3025,128.2607,377.943,133.2635,372.9402,135.904,382.72,134.74" style="stroke:#181818;stroke-width:1.0;"/><text fill="#000000" font-family="sans-serif" font-size="13" lengthAdjust="spacing" textLength="30" x="270.5" y="98.0669">uses</text></g><!--link GhostNetBean to DataController--><g id="link_GhostNetBean_DataController"><path codeLine="29" d="M258.25,55.42 C300.07,77.31 356.8343,107.0174 398.5943,128.8774 " fill="none" id="GhostNetBean-to-DataController" style="stroke:#181818;stroke-width:1.0;"/><polygon fill="#181818" points="403.91,131.66,397.7915,123.9423,399.4802,129.3412,394.0813,131.0299,403.91,131.66" style="stroke:#181818;stroke-width:1.0;"/><text fill="#000000" font-family="sans-serif" font-size="13" lengthAdjust="spacing" textLength="30" x="346.5" y="98.0669">uses</text></g><!--link ReportBean to DataController--><g id="link_ReportBean_DataController"><path codeLine="30" d="M386.97,55.42 C400.5,77.31 417.4157,104.6961 430.9257,126.5561 " fill="none" id="ReportBean-to-DataController" style="stroke:#181818;stroke-width:1.0;"/><polygon fill="#181818" points="434.08,131.66,432.7511,121.9012,431.4514,127.4067,425.9459,126.107,434.08,131.66" style="stroke:#181818;stroke-width:1.0;"/><text fill="#000000" font-family="sans-serif" font-size="13" lengthAdjust="spacing" textLength="30" x="416.5" y="98.0669">uses</text></g><!--link StatisticBean to DataController--><g id="link_StatisticBean_DataController"><path codeLine="31" d="M510.84,55.42 C497.13,77.31 479.9729,104.7138 466.2929,126.5738 " fill="none" id="StatisticBean-to-DataController" style="stroke:#181818;stroke-width:1.0;"/><polygon fill="#181818" points="463.11,131.66,471.2752,126.1527,465.7624,127.4215,464.4936,121.9088,463.11,131.66" style="stroke:#181818;stroke-width:1.0;"/><text fill="#000000" font-family="sans-serif" font-size="13" lengthAdjust="spacing" textLength="30" x="492.5" y="98.0669">uses</text></g><!--link LabelBean to DataController--><g id="link_LabelBean_DataController"><path codeLine="32" d="M630.65,55.42 C590.61,77.31 536.4448,106.9221 496.4548,128.7821 " fill="none" id="LabelBean-to-DataController" style="stroke:#181818;stroke-width:1.0;"/><polygon fill="#181818" points="491.19,131.66,501.0057,130.853,495.5773,129.2617,497.1685,123.8333,491.19,131.66" style="stroke:#181818;stroke-width:1.0;"/><text fill="#000000" font-family="sans-serif" font-size="13" lengthAdjust="spacing" textLength="30" x="574.5" y="98.0669">uses</text></g><!--link TestBean to DataController--><g id="link_TestBean_DataController"><path codeLine="33" d="M759.71,50.28 C720.18,64.67 663.46,85.06 613.5,102 C581.02,113.01 550.4582,122.9128 520.2182,132.5228 " fill="none" id="TestBean-to-DataController" style="stroke:#181818;stroke-width:1.0;"/><polygon fill="#181818" points="514.5,134.34,524.2888,135.4263,519.2652,132.8257,521.8658,127.8021,514.5,134.34" style="stroke:#181818;stroke-width:1.0;"/><text fill="#000000" font-family="sans-serif" font-size="13" lengthAdjust="spacing" textLength="30" x="662.5" y="98.0669">uses</text></g><!--link DataController to DataService--><g id="link_DataController_DataService"><path codeLine="34" d="M430.79,180.42 C414.24,202.31 393.2875,230.0132 376.7675,251.8732 " fill="none" id="DataController-to-DataService" style="stroke:#181818;stroke-width:1.0;"/><polygon fill="#181818" points="373.15,256.66,381.7675,251.8914,376.1646,252.671,375.385,247.0681,373.15,256.66" style="stroke:#181818;stroke-width:1.0;"/><text fill="#000000" font-family="sans-serif" font-size="13" lengthAdjust="spacing" textLength="30" x="409.5" y="223.0669">uses</text></g><!--link DataController to DataServiceGeoNames--><g id="link_DataController_DataServiceGeoNames"><path codeLine="35" d="M466.4,180.42 C483.13,202.31 504.3176,230.0321 521.0176,251.8921 " fill="none" id="DataController-to-DataServiceGeoNames" style="stroke:#181818;stroke-width:1.0;"/><polygon fill="#181818" points="524.66,256.66,522.3749,247.0799,521.6246,252.6868,516.0178,251.9365,524.66,256.66" style="stroke:#181818;stroke-width:1.0;"/><text fill="#000000" font-family="sans-serif" font-size="13" lengthAdjust="spacing" textLength="30" x="501.5" y="223.0669">uses</text></g><!--SRC=[ZP112i9034NtSugvG2_WmeKMkYbTM2yGXw03uqGcqOruTw6bhKq9k7t_yU7_a83PjtID-O2G_Tjzd0i3R6x4qg5eVi87bGtj1IIonA235YwOD3mZRnfg43XIba8fOT59Z-KL0nguGUhWZZp6ovogsklUdNyoibkjixMViRQqtcvxonMsCpzZAufEulJGNzPys6X_0G00]--></g></svg>