<svg xmlns="http://www.w3.org/2000/svg" xmlns:xlink="http://www.w3.org/1999/xlink" contentStyleType="text/css" height="506px" preserveAspectRatio="none" style="width:635px;height:506px;background:#FFFFFF;" version="1.1" viewBox="0 0 635 506" width="635px" zoomAndPan="magnify"><defs/><g><!--class geonamescache--><g id="elem_geonamescache"><rect codeLine="1" fill="#F1F1F1" height="96.8906" id="geonamescache" rx="2.5" ry="2.5" style="stroke:#181818;stroke-width:0.5;" width="151" x="20" y="23.3"/><ellipse cx="36.35" cy="39.3" fill="#ADD1B2" rx="11" ry="11" style="stroke:#181818;stroke-width:1.0;"/><path d="M40.4594,45.3 L32.7406,45.3 L32.7406,32.9094 L40.4594,32.9094 L40.4594,35.0656 L35.1938,35.0656 L35.1938,37.7375 L39.9594,37.7375 L39.9594,39.8938 L35.1938,39.8938 L35.1938,43.1438 L40.4594,43.1438 L40.4594,45.3 Z " fill="#000000"/><text fill="#000000" font-family="sans-serif" font-size="14" lengthAdjust="spacing" textLength="116" x="50.65" y="44.1467">geonamescache</text><line style="stroke:#181818;stroke-width:0.5;" x1="21" x2="170" y1="55.3" y2="55.3"/><ellipse cx="31" cy="68.9484" fill="#000000" rx="3" ry="3" style="stroke:#000000;stroke-width:1.0;"/><text fill="#000000" font-family="sans-serif" font-size="14" lengthAdjust="spacing" textLength="105" x="40" y="72.2951">ghostnetid : int</text><line style="stroke:#181818;stroke-width:1.0;" x1="21" x2="170" y1="79.5969" y2="79.5969"/><text fill="#000000" font-family="sans-serif" font-size="14" lengthAdjust="spacing" textLength="139" x="26" y="96.592">name : varchar(255)</text><text fill="#000000" font-family="sans-serif" font-size="14" lengthAdjust="spacing" textLength="103" x="26" y="112.8889">timestamp : int</text></g><!--class ghostnets--><g id="elem_ghostnets"><rect codeLine="8" fill="#F1F1F1" height="113.1875" id="ghostnets" rx="2.5" ry="2.5" style="stroke:#181818;stroke-width:0.5;" width="177" x="7" y="212.78"/><ellipse cx="55.75" cy="228.78" fill="#ADD1B2" rx="11" ry="11" style="stroke:#181818;stroke-width:1.0;"/><path d="M59.8594,234.78 L52.1406,234.78 L52.1406,222.3894 L59.8594,222.3894 L59.8594,224.5456 L54.5938,224.5456 L54.5938,227.2175 L59.3594,227.2175 L59.3594,229.3738 L54.5938,229.3738 L54.5938,232.6238 L59.8594,232.6238 L59.8594,234.78 Z " fill="#000000"/><text fill="#000000" font-family="sans-serif" font-size="14" lengthAdjust="spacing" textLength="71" x="76.25" y="233.6267">ghostnets</text><line style="stroke:#181818;stroke-width:0.5;" x1="8" x2="183" y1="244.78" y2="244.78"/><ellipse cx="18" cy="258.4284" fill="#000000" rx="3" ry="3" style="stroke:#000000;stroke-width:1.0;"/><text fill="#000000" font-family="sans-serif" font-size="14" lengthAdjust="spacing" textLength="42" x="27" y="261.7751">id : int</text><line style="stroke:#181818;stroke-width:1.0;" x1="8" x2="183" y1="269.0769" y2="269.0769"/><text fill="#000000" font-family="sans-serif" font-size="14" lengthAdjust="spacing" textLength="151" x="13" y="286.072">latitude : varchar(255)</text><text fill="#000000" font-family="sans-serif" font-size="14" lengthAdjust="spacing" textLength="165" x="13" y="302.3689">longitude : varchar(255)</text><text fill="#000000" font-family="sans-serif" font-size="14" lengthAdjust="spacing" textLength="58" x="13" y="318.6657">size : int</text></g><!--class ghostnetsizes--><g id="elem_ghostnetsizes"><rect codeLine="16" fill="#F1F1F1" height="80.5938" id="ghostnetsizes" rx="2.5" ry="2.5" style="stroke:#181818;stroke-width:0.5;" width="144" x="23.5" y="410.42"/><ellipse cx="44.35" cy="426.42" fill="#ADD1B2" rx="11" ry="11" style="stroke:#181818;stroke-width:1.0;"/><path d="M48.4594,432.42 L40.7406,432.42 L40.7406,420.0294 L48.4594,420.0294 L48.4594,422.1856 L43.1938,422.1856 L43.1938,424.8575 L47.9594,424.8575 L47.9594,427.0138 L43.1938,427.0138 L43.1938,430.2638 L48.4594,430.2638 L48.4594,432.42 Z " fill="#000000"/><text fill="#000000" font-family="sans-serif" font-size="14" lengthAdjust="spacing" textLength="99" x="59.65" y="431.2667">ghostnetsizes</text><line style="stroke:#181818;stroke-width:0.5;" x1="24.5" x2="166.5" y1="442.42" y2="442.42"/><ellipse cx="34.5" cy="456.0684" fill="#000000" rx="3" ry="3" style="stroke:#000000;stroke-width:1.0;"/><text fill="#000000" font-family="sans-serif" font-size="14" lengthAdjust="spacing" textLength="42" x="43.5" y="459.4151">id : int</text><line style="stroke:#181818;stroke-width:1.0;" x1="24.5" x2="166.5" y1="466.7169" y2="466.7169"/><text fill="#000000" font-family="sans-serif" font-size="14" lengthAdjust="spacing" textLength="132" x="29.5" y="483.712">label : varchar(255)</text></g><!--class reports--><g id="elem_reports"><rect codeLine="22" fill="#F1F1F1" height="129.4844" id="reports" rx="2.5" ry="2.5" style="stroke:#181818;stroke-width:0.5;" width="115" x="233" y="7"/><ellipse cx="262.85" cy="23" fill="#ADD1B2" rx="11" ry="11" style="stroke:#181818;stroke-width:1.0;"/><path d="M266.9594,29 L259.2406,29 L259.2406,16.6094 L266.9594,16.6094 L266.9594,18.7656 L261.6938,18.7656 L261.6938,21.4375 L266.4594,21.4375 L266.4594,23.5938 L261.6938,23.5938 L261.6938,26.8438 L266.9594,26.8438 L266.9594,29 Z " fill="#000000"/><text fill="#000000" font-family="sans-serif" font-size="14" lengthAdjust="spacing" textLength="50" x="280.15" y="27.8467">reports</text><line style="stroke:#181818;stroke-width:0.5;" x1="234" x2="347" y1="39" y2="39"/><ellipse cx="244" cy="52.6484" fill="#000000" rx="3" ry="3" style="stroke:#000000;stroke-width:1.0;"/><text fill="#000000" font-family="sans-serif" font-size="14" lengthAdjust="spacing" textLength="42" x="253" y="55.9951">id : int</text><line style="stroke:#181818;stroke-width:1.0;" x1="234" x2="347" y1="63.2969" y2="63.2969"/><text fill="#000000" font-family="sans-serif" font-size="14" lengthAdjust="spacing" textLength="61" x="239" y="80.292">user : int</text><text fill="#000000" font-family="sans-serif" font-size="14" lengthAdjust="spacing" textLength="93" x="239" y="96.5889">ghostnet : int</text><text fill="#000000" font-family="sans-serif" font-size="14" lengthAdjust="spacing" textLength="73" x="239" y="112.8857">status : int</text><text fill="#000000" font-family="sans-serif" font-size="14" lengthAdjust="spacing" textLength="103" x="239" y="129.1826">timestamp : int</text></g><!--class statuscodes--><g id="elem_statuscodes"><rect codeLine="31" fill="#F1F1F1" height="80.5938" id="statuscodes" rx="2.5" ry="2.5" style="stroke:#181818;stroke-width:0.5;" width="144" x="218.5" y="229.08"/><ellipse cx="245.2" cy="245.08" fill="#ADD1B2" rx="11" ry="11" style="stroke:#181818;stroke-width:1.0;"/><path d="M249.3094,251.08 L241.5906,251.08 L241.5906,238.6894 L249.3094,238.6894 L249.3094,240.8456 L244.0438,240.8456 L244.0438,243.5175 L248.8094,243.5175 L248.8094,245.6738 L244.0438,245.6738 L244.0438,248.9238 L249.3094,248.9238 L249.3094,251.08 Z " fill="#000000"/><text fill="#000000" font-family="sans-serif" font-size="14" lengthAdjust="spacing" textLength="86" x="261.8" y="249.9267">statuscodes</text><line style="stroke:#181818;stroke-width:0.5;" x1="219.5" x2="361.5" y1="261.08" y2="261.08"/><ellipse cx="229.5" cy="274.7284" fill="#000000" rx="3" ry="3" style="stroke:#000000;stroke-width:1.0;"/><text fill="#000000" font-family="sans-serif" font-size="14" lengthAdjust="spacing" textLength="42" x="238.5" y="278.0751">id : int</text><line style="stroke:#181818;stroke-width:1.0;" x1="219.5" x2="361.5" y1="285.3769" y2="285.3769"/><text fill="#000000" font-family="sans-serif" font-size="14" lengthAdjust="spacing" textLength="132" x="224.5" y="302.372">label : varchar(255)</text></g><!--class userdetails--><g id="elem_userdetails"><rect codeLine="37" fill="#F1F1F1" height="113.1875" id="userdetails" rx="2.5" ry="2.5" style="stroke:#181818;stroke-width:0.5;" width="211" x="407" y="15.15"/><ellipse cx="470.25" cy="31.15" fill="#ADD1B2" rx="11" ry="11" style="stroke:#181818;stroke-width:1.0;"/><path d="M474.3594,37.15 L466.6406,37.15 L466.6406,24.7594 L474.3594,24.7594 L474.3594,26.9156 L469.0938,26.9156 L469.0938,29.5875 L473.8594,29.5875 L473.8594,31.7438 L469.0938,31.7438 L469.0938,34.9938 L474.3594,34.9938 L474.3594,37.15 Z " fill="#000000"/><text fill="#000000" font-family="sans-serif" font-size="14" lengthAdjust="spacing" textLength="76" x="490.75" y="35.9967">userdetails</text><line style="stroke:#181818;stroke-width:0.5;" x1="408" x2="617" y1="47.15" y2="47.15"/><ellipse cx="418" cy="60.7984" fill="#000000" rx="3" ry="3" style="stroke:#000000;stroke-width:1.0;"/><text fill="#000000" font-family="sans-serif" font-size="14" lengthAdjust="spacing" textLength="73" x="427" y="64.1451">userid : int</text><line style="stroke:#181818;stroke-width:1.0;" x1="408" x2="617" y1="71.4469" y2="71.4469"/><text fill="#000000" font-family="sans-serif" font-size="14" lengthAdjust="spacing" textLength="164" x="413" y="88.442">firstname : varchar(255)</text><text fill="#000000" font-family="sans-serif" font-size="14" lengthAdjust="spacing" textLength="163" x="413" y="104.7389">lastname : varchar(255)</text><text fill="#000000" font-family="sans-serif" font-size="14" lengthAdjust="spacing" textLength="199" x="413" y="121.0357">phonenumber : varchar(255)</text></g><!--class userroles--><g id="elem_userroles"><rect codeLine="45" fill="#F1F1F1" height="96.8906" id="userroles" rx="2.5" ry="2.5" style="stroke:#181818;stroke-width:0.5;" width="144" x="440.5" y="402.27"/><ellipse cx="476.65" cy="418.27" fill="#ADD1B2" rx="11" ry="11" style="stroke:#181818;stroke-width:1.0;"/><path d="M480.7594,424.27 L473.0406,424.27 L473.0406,411.8794 L480.7594,411.8794 L480.7594,414.0356 L475.4938,414.0356 L475.4938,416.7075 L480.2594,416.7075 L480.2594,418.8638 L475.4938,418.8638 L475.4938,422.1138 L480.7594,422.1138 L480.7594,424.27 Z " fill="#000000"/><text fill="#000000" font-family="sans-serif" font-size="14" lengthAdjust="spacing" textLength="65" x="495.35" y="423.1167">userroles</text><line style="stroke:#181818;stroke-width:0.5;" x1="441.5" x2="583.5" y1="434.27" y2="434.27"/><ellipse cx="451.5" cy="447.9184" fill="#000000" rx="3" ry="3" style="stroke:#000000;stroke-width:1.0;"/><text fill="#000000" font-family="sans-serif" font-size="14" lengthAdjust="spacing" textLength="42" x="460.5" y="451.2651">id : int</text><line style="stroke:#181818;stroke-width:1.0;" x1="441.5" x2="583.5" y1="458.5669" y2="458.5669"/><text fill="#000000" font-family="sans-serif" font-size="14" lengthAdjust="spacing" textLength="56" x="446.5" y="475.562">role : int</text><text fill="#000000" font-family="sans-serif" font-size="14" lengthAdjust="spacing" textLength="132" x="446.5" y="491.8589">label : varchar(255)</text></g><!--class users--><g id="elem_users"><rect codeLine="52" fill="#F1F1F1" height="145.7813" id="users" rx="2.5" ry="2.5" style="stroke:#181818;stroke-width:0.5;" width="231" x="397" y="196.49"/><ellipse cx="488.75" cy="212.49" fill="#ADD1B2" rx="11" ry="11" style="stroke:#181818;stroke-width:1.0;"/><path d="M492.8594,218.49 L485.1406,218.49 L485.1406,206.0994 L492.8594,206.0994 L492.8594,208.2556 L487.5938,208.2556 L487.5938,210.9275 L492.3594,210.9275 L492.3594,213.0838 L487.5938,213.0838 L487.5938,216.3338 L492.8594,216.3338 L492.8594,218.49 Z " fill="#000000"/><text fill="#000000" font-family="sans-serif" font-size="14" lengthAdjust="spacing" textLength="39" x="509.25" y="217.3367">users</text><line style="stroke:#181818;stroke-width:0.5;" x1="398" x2="627" y1="228.49" y2="228.49"/><ellipse cx="408" cy="242.1384" fill="#000000" rx="3" ry="3" style="stroke:#000000;stroke-width:1.0;"/><text fill="#000000" font-family="sans-serif" font-size="14" lengthAdjust="spacing" textLength="42" x="417" y="245.4851">id : int</text><line style="stroke:#181818;stroke-width:1.0;" x1="398" x2="627" y1="252.7869" y2="252.7869"/><text fill="#000000" font-family="sans-serif" font-size="14" lengthAdjust="spacing" textLength="56" x="403" y="269.782">role : int</text><text fill="#000000" font-family="sans-serif" font-size="14" lengthAdjust="spacing" textLength="170" x="403" y="286.0789">username : varchar(255)</text><text fill="#000000" font-family="sans-serif" font-size="14" lengthAdjust="spacing" textLength="166" x="403" y="302.3757">comment : varchar(255)</text><text fill="#000000" font-family="sans-serif" font-size="14" lengthAdjust="spacing" textLength="219" x="403" y="318.6726">hashedpassword : varchar(255)</text><text fill="#000000" font-family="sans-serif" font-size="14" lengthAdjust="spacing" textLength="124" x="403" y="334.9695">salt : varchar(255)</text></g><!--link geonamescache to ghostnets--><g id="link_geonamescache_ghostnets"><path codeLine="62" d="M95.5,128.6 C95.5,156.32 95.5,175.35 95.5,204.34 " fill="none" id="geonamescache-ghostnets" style="stroke:#181818;stroke-width:1.0;"/><line style="stroke:#181818;stroke-width:1.0;" x1="95.5" x2="89.5" y1="128.6" y2="120.6"/><line style="stroke:#181818;stroke-width:1.0;" x1="95.5" x2="101.5" y1="128.6" y2="120.6"/><line style="stroke:#181818;stroke-width:1.0;" x1="95.5" x2="95.5" y1="128.6" y2="120.6"/><line style="stroke:#181818;stroke-width:1.0;" x1="91.5" x2="99.5" y1="130.6" y2="130.6"/><line style="stroke:#181818;stroke-width:1.0;" x1="99.5" x2="91.5" y1="208.34" y2="208.34"/><line style="stroke:#181818;stroke-width:1.0;" x1="99.5" x2="91.5" y1="205.34" y2="205.34"/><line style="stroke:#181818;stroke-width:1.0;" x1="95.5" x2="95.5" y1="204.34" y2="212.34"/></g><!--link ghostnets to ghostnetsizes--><g id="link_ghostnets_ghostnetsizes"><path codeLine="63" d="M95.5,334.14 C95.5,361.28 95.5,377.29 95.5,401.93 " fill="none" id="ghostnets-ghostnetsizes" style="stroke:#181818;stroke-width:1.0;"/><line style="stroke:#181818;stroke-width:1.0;" x1="95.5" x2="89.5" y1="334.14" y2="326.14"/><line style="stroke:#181818;stroke-width:1.0;" x1="95.5" x2="101.5" y1="334.14" y2="326.14"/><line style="stroke:#181818;stroke-width:1.0;" x1="95.5" x2="95.5" y1="334.14" y2="326.14"/><line style="stroke:#181818;stroke-width:1.0;" x1="91.5" x2="99.5" y1="336.14" y2="336.14"/><line style="stroke:#181818;stroke-width:1.0;" x1="99.5" x2="91.5" y1="405.93" y2="405.93"/><line style="stroke:#181818;stroke-width:1.0;" x1="99.5" x2="91.5" y1="402.93" y2="402.93"/><line style="stroke:#181818;stroke-width:1.0;" x1="95.5" x2="95.5" y1="401.93" y2="409.93"/></g><!--link reports to users--><g id="link_reports_users"><path codeLine="64" d="M354.2526,128.9285 C379.3026,150.9985 397.0981,166.6807 424.3881,190.7307 " fill="none" id="reports-users" style="stroke:#181818;stroke-width:1.0;"/><line style="stroke:#181818;stroke-width:1.0;" x1="354.2526" x2="344.2836" y1="128.9285" y2="128.142"/><line style="stroke:#181818;stroke-width:1.0;" x1="354.2526" x2="352.2164" y1="128.9285" y2="119.138"/><line style="stroke:#181818;stroke-width:1.0;" x1="354.2526" x2="348.25" y1="128.9285" y2="123.64"/><line style="stroke:#181818;stroke-width:1.0;" x1="353.109" x2="358.3975" y1="133.252" y2="127.2494"/><line style="stroke:#181818;stroke-width:1.0;" x1="430.0337" x2="424.7444" y1="190.3744" y2="196.3763"/><line style="stroke:#181818;stroke-width:1.0;" x1="427.783" x2="422.4937" y1="188.3909" y2="194.3928"/><line style="stroke:#181818;stroke-width:1.0;" x1="424.3881" x2="430.39" y1="190.7307" y2="196.02"/></g><!--link reports to ghostnets--><g id="link_reports_ghostnets"><path codeLine="65" d="M226.873,136.5767 C201.163,162.3767 182.338,181.2643 156.898,206.7843 " fill="none" id="reports-ghostnets" style="stroke:#181818;stroke-width:1.0;"/><line style="stroke:#181818;stroke-width:1.0;" x1="226.873" x2="228.27" y1="136.5767" y2="126.6748"/><line style="stroke:#181818;stroke-width:1.0;" x1="226.873" x2="236.77" y1="136.5767" y2="135.1452"/><line style="stroke:#181818;stroke-width:1.0;" x1="226.873" x2="232.52" y1="136.5767" y2="130.91"/><line style="stroke:#181818;stroke-width:1.0;" x1="222.6279" x2="228.2947" y1="135.1699" y2="140.8169"/><line style="stroke:#181818;stroke-width:1.0;" x1="156.9068" x2="151.2411" y1="212.4411" y2="206.7932"/><line style="stroke:#181818;stroke-width:1.0;" x1="159.0248" x2="153.3591" y1="210.3165" y2="204.6685"/><line style="stroke:#181818;stroke-width:1.0;" x1="156.898" x2="151.25" y1="206.7843" y2="212.45"/></g><!--link reports to statuscodes--><g id="link_reports_statuscodes"><path codeLine="66" d="M290.5,144.8 C290.5,175.11 290.5,194.35 290.5,220.73 " fill="none" id="reports-statuscodes" style="stroke:#181818;stroke-width:1.0;"/><line style="stroke:#181818;stroke-width:1.0;" x1="290.5" x2="284.5" y1="144.8" y2="136.8"/><line style="stroke:#181818;stroke-width:1.0;" x1="290.5" x2="296.5" y1="144.8" y2="136.8"/><line style="stroke:#181818;stroke-width:1.0;" x1="290.5" x2="290.5" y1="144.8" y2="136.8"/><line style="stroke:#181818;stroke-width:1.0;" x1="286.5" x2="294.5" y1="146.8" y2="146.8"/><line style="stroke:#181818;stroke-width:1.0;" x1="294.5" x2="286.5" y1="224.73" y2="224.73"/><line style="stroke:#181818;stroke-width:1.0;" x1="294.5" x2="286.5" y1="221.73" y2="221.73"/><line style="stroke:#181818;stroke-width:1.0;" x1="290.5" x2="290.5" y1="220.73" y2="228.73"/></g><!--link userdetails to users--><g id="link_userdetails_users"><path codeLine="67" d="M512.5,136.81 C512.5,157.81 512.5,165.97 512.5,188.22 " fill="none" id="userdetails-users" style="stroke:#181818;stroke-width:1.0;"/><line style="stroke:#181818;stroke-width:1.0;" x1="512.5" x2="506.5" y1="136.81" y2="128.81"/><line style="stroke:#181818;stroke-width:1.0;" x1="512.5" x2="518.5" y1="136.81" y2="128.81"/><line style="stroke:#181818;stroke-width:1.0;" x1="512.5" x2="512.5" y1="136.81" y2="128.81"/><line style="stroke:#181818;stroke-width:1.0;" x1="508.5" x2="516.5" y1="138.81" y2="138.81"/><line style="stroke:#181818;stroke-width:1.0;" x1="516.5" x2="508.5" y1="192.22" y2="192.22"/><line style="stroke:#181818;stroke-width:1.0;" x1="516.5" x2="508.5" y1="189.22" y2="189.22"/><line style="stroke:#181818;stroke-width:1.0;" x1="512.5" x2="512.5" y1="188.22" y2="196.22"/></g><!--link users to userroles--><g id="link_users_userroles"><path codeLine="68" d="M512.5,350.55 C512.5,370.5 512.5,375.65 512.5,393.85 " fill="none" id="users-userroles" style="stroke:#181818;stroke-width:1.0;"/><line style="stroke:#181818;stroke-width:1.0;" x1="512.5" x2="506.5" y1="350.55" y2="342.55"/><line style="stroke:#181818;stroke-width:1.0;" x1="512.5" x2="518.5" y1="350.55" y2="342.55"/><line style="stroke:#181818;stroke-width:1.0;" x1="512.5" x2="512.5" y1="350.55" y2="342.55"/><line style="stroke:#181818;stroke-width:1.0;" x1="508.5" x2="516.5" y1="352.55" y2="352.55"/><line style="stroke:#181818;stroke-width:1.0;" x1="516.5" x2="508.5" y1="397.85" y2="397.85"/><line style="stroke:#181818;stroke-width:1.0;" x1="516.5" x2="508.5" y1="394.85" y2="394.85"/><line style="stroke:#181818;stroke-width:1.0;" x1="512.5" x2="512.5" y1="393.85" y2="401.85"/></g><!--SRC=[dPFBRiGW34NtV0NBjb8sbMRJl_44Do3nY82qQYVpxpKPyXWArQYRIBdNERu61srKyOiFw2mO33tq4lc5SVx21-b2j1YLu6zSsKXYrz4Z5PBo0RwNu9zUJwTdKgEYpoEOCHTV6SFCpfoGkILF0vLDeiBKpWuDAwXlR7SYiztjZBhaxGYFe_FDg5D0lobhjqsWyUCKjjVsYTmAUoV-cpBb41X1wHMGb1BohZm5hDwMXfOpIcVHJkQyJFf7V-zqCtxoDkM1MHxYfC9wvjuPGxJVXeGWKOmGmgVpeh95e6CbsVtVS9sxRfxtvMBxGfTMsZkshb0sb_bASOSLnc4rsF6Mxs2t8pj8orty0000]--></g></svg>